<?xml version="1.0" encoding="utf-8"?>
<!-- Generator: Adobe Illustrator 25.4.1, SVG Export Plug-In . SVG Version: 6.00 Build 0)  -->
<svg version="1.1" id="Capa_1" focusable="false" xmlns="http://www.w3.org/2000/svg" xmlns:xlink="http://www.w3.org/1999/xlink"
	 x="0px" y="0px" viewBox="0 0 512 512" style="enable-background:new 0 0 512 512;" xml:space="preserve">
<style type="text/css">
	.st0{fill:#FFFFFF;}
</style>
<path class="st0" d="M464,64H48C21.49,64,0,85.49,0,112v288c0,26.51,21.49,48,48,48h416c26.51,0,48-21.49,48-48V112
	C512,85.49,490.51,64,464,64z M464,112v40.8c-22.42,18.26-58.17,46.65-134.59,106.49c-16.84,13.25-50.2,45.07-73.41,44.7
	c-23.21,0.38-56.58-31.46-73.41-44.7C106.18,199.46,70.43,171.07,48,152.8V112H464z M48,400V214.4
	c22.91,18.25,55.41,43.86,104.94,82.65c21.86,17.2,60.13,55.19,103.06,54.96c42.72,0.23,80.51-37.2,103.05-54.95
	c49.53-38.78,82.03-64.4,104.95-82.65V400H48z"/>
</svg>
